<svg xmlns="http://www.w3.org/2000/svg" width="50" height="50" viewBox="0 0 50 50"><defs><style>.a{fill:#6c757d;}.b{fill:#6c757d;}.c{fill:#3e4347;}.d{fill:#6c757d;}</style></defs><path class="a" d="M25,0A25,25,0,1,1,0,25,25,25,0,0,1,25,0Z"/><path class="b" d="M100.769,76A24.77,24.77,0,0,1,56.72,91.55,24.77,24.77,0,0,0,91.55,56.72,24.742,24.742,0,0,1,100.769,76Z" transform="translate(-51.232 -50.769)"/><g transform="translate(10.596 25.737)"><path class="c" d="M194.372,372.762a1.283,1.283,0,0,1-1.29,1.289H180.874a1.29,1.29,0,0,1,0-2.579h12.209A1.291,1.291,0,0,1,194.372,372.762Z" transform="translate(-172.805 -360.806)"/><path class="c" d="M109.735,261.269c.605-.356,2.4,1.564,5.209,1.669,2.912.108,4.6-2.025,5.209-1.669.754.259-.274,5.181-5.209,5.2C110.011,266.451,108.981,261.528,109.735,261.269Z" transform="translate(-109.513 -261.225)"/></g><path class="d" d="M91.705,183.911a1.032,1.032,0,1,1,.328-2.037c5.8.932,7.565-3.212,7.582-3.254a1.032,1.032,0,0,1,1.912.779C100.363,182.25,96.707,184.714,91.705,183.911Z" transform="translate(-82.049 -160.294)"/><path class="c" d="M300.856,261.269c-.605-.356-2.4,1.564-5.209,1.669-2.912.108-4.6-2.025-5.209-1.669-.754.259.274,5.181,5.209,5.2C300.581,266.451,301.61,261.528,300.856,261.269Z" transform="translate(-262.137 -235.488)"/><path class="d" d="M309.957,179.38a1.032,1.032,0,0,1,1.91-.783c.077.186,1.85,4.181,7.584,3.26a1.032,1.032,0,1,1,.328,2.037C314.813,184.693,311.131,182.258,309.957,179.38Z" transform="translate(-279.899 -160.277)"/></svg>