<svg xmlns="http://www.w3.org/2000/svg" width="50" height="50" viewBox="0 0 50 50"><defs><style>.a{fill:#6c757d;}.b{fill:#3e4347;}.c{fill:#6c757d;}</style></defs><path class="a" d="M25,0A25,25,0,1,1,0,25,25,25,0,0,1,25,0Z"/><path class="b" d="M119.615,311.314a15.212,15.212,0,0,1-14.509-10.58,1.158,1.158,0,0,1,2.2-.712,12.924,12.924,0,0,0,24.613,0,1.158,1.158,0,0,1,2.2.712A15.212,15.212,0,0,1,119.615,311.314Z" transform="translate(-94.913 -270.347)"/><path class="c" d="M100.651,75.949A24.7,24.7,0,0,1,56.72,91.457,24.7,24.7,0,0,0,91.457,56.72,24.676,24.676,0,0,1,100.651,75.949Z" transform="translate(-51.247 -51.247)"/><g transform="translate(9.302 15.133)"><path class="b" d="M107.694,162.365a7.355,7.355,0,0,0-11.294.011,5.648,5.648,0,0,1,11.294-.011Z" transform="translate(-96.4 -156.832)"/><path class="b" d="M309.87,162.365a7.355,7.355,0,0,0-11.293.011,5.648,5.648,0,0,1,11.293-.011Z" transform="translate(-279.068 -156.832)"/></g></svg>