<svg xmlns="http://www.w3.org/2000/svg" width="49" height="49" viewBox="0 0 49 49"><defs><style>.a{fill:#6c757d;}.b{fill:#6c757d;}.c{fill:#3e4347;}.d{fill:#6c757d;}</style></defs><circle class="a" cx="24.5" cy="24.5" r="24.5"/><path class="b" d="M99.409,75.405A24,24,0,0,1,56.72,90.475,24.005,24.005,0,0,0,90.475,56.72,23.978,23.978,0,0,1,99.409,75.405Z" transform="translate(-51.402 -51.402)"/><circle class="c" cx="3.767" cy="3.767" r="3.767" transform="translate(29.067 17.386)"/><ellipse class="d" cx="1.14" cy="0.738" rx="1.14" ry="0.738" transform="matrix(-0.914, -0.405, 0.405, -0.914, 34.645, 20.621)"/><circle class="c" cx="3.767" cy="3.767" r="3.767" transform="translate(11.406 17.386)"/><ellipse class="d" cx="1.14" cy="0.738" rx="1.14" ry="0.738" transform="matrix(-0.914, -0.405, 0.405, -0.914, 16.984, 20.62)"/><path class="c" d="M147.713,338.268a1.125,1.125,0,1,1,1.542-1.638,12.111,12.111,0,0,0,16.58,0,1.125,1.125,0,1,1,1.542,1.638A14.363,14.363,0,0,1,147.713,338.268Z" transform="translate(-133.542 -304.789)"/></svg>