<svg xmlns="http://www.w3.org/2000/svg" width="50" height="50" viewBox="0 0 50 50"><defs><style>.a{fill:#ff9800;}.b{fill:#e58d0a;}.c{fill:#3e4347;}.d{fill:#5a5f63;}</style></defs><g transform="translate(0 0.3)"><ellipse class="a" cx="24.774" cy="24.708" rx="24.774" ry="24.708" transform="translate(0 -0.3)"/><path class="b" d="M100.715,75.919a24.755,24.755,0,0,1-44,15.484A24.7,24.7,0,0,0,91.508,56.72,24.609,24.609,0,0,1,100.715,75.919Z" transform="translate(-50.716 -50.882)"/><g transform="translate(12.374 15.441)"><path class="c" d="M165.681,331.954a1.472,1.472,0,0,1-1.474,1.474H142.9a1.474,1.474,0,1,1,0-2.947h21.31A1.473,1.473,0,0,1,165.681,331.954Z" transform="translate(-140.889 -313.379)"/><circle class="c" cx="4.038" cy="4.038" r="4.038"/></g><ellipse class="d" cx="1.06" cy="0.686" rx="1.06" ry="0.686" transform="translate(18.727 19.765) rotate(-126.653)"/><circle class="c" cx="4.038" cy="4.038" r="4.038" transform="translate(28.798 16.03)"/><ellipse class="d" cx="1.06" cy="0.686" rx="1.06" ry="0.686" transform="matrix(-0.597, -0.802, 0.802, -0.597, 34.576, 19.769)"/></g></svg>