<svg xmlns="http://www.w3.org/2000/svg" width="50" height="50" viewBox="0 0 50 50"><defs><style>.a{fill:#6c757d;}.b{fill:#6c757d;}.c{fill:#6c757d;}.d{fill:#3e4347;}</style></defs><circle class="a" cx="25" cy="25" r="25" transform="translate(0 0)"/><path class="b" d="M132.47,328.806a15.386,15.386,0,0,1-28.9,0,1,1,0,0,1,.719-1.317,71.35,71.35,0,0,1,27.456,0A1,1,0,0,1,132.47,328.806Z" transform="translate(-93.233 -295.016)"/><path class="c" d="M100.68,75.962A24.719,24.719,0,0,1,56.72,91.48,24.72,24.72,0,0,0,91.48,56.72,24.692,24.692,0,0,1,100.68,75.962Z" transform="translate(-51.089 -51.089)"/><g transform="translate(10.203 11.753)"><path class="d" d="M115.264,327.463c1.808,2.942,7.464,3.258,14.214,3.258,6.66,0,12.33-.316,14.214-3.136a1,1,0,0,0-.146-.065A77.5,77.5,0,0,0,115.264,327.463Z" transform="translate(-115.264 -306.143)"/><ellipse class="d" cx="8.047" cy="8.042" rx="8.047" ry="8.042" transform="translate(15.896)"/></g><ellipse class="b" cx="4.387" cy="4.39" rx="4.387" ry="4.39" transform="translate(30.082 15.516)"/><g transform="translate(7.402 11.896)"><ellipse class="d" cx="1.187" cy="0.801" rx="1.187" ry="0.801" transform="matrix(-0.707, -0.707, 0.707, -0.707, 30.132, 7.74)"/><ellipse class="d" cx="8.047" cy="8.042" rx="8.047" ry="8.042"/></g><ellipse class="b" cx="4.387" cy="4.39" rx="4.387" ry="4.39" transform="translate(10.733 15.516)"/><ellipse class="d" cx="1.187" cy="0.801" rx="1.187" ry="0.801" transform="matrix(-0.707, -0.707, 0.707, -0.707, 17.188, 19.627)"/></svg>